HIERARCHY
ROOT hips
{
  OFFSET 0 9.313263304106702 1.2146308026317778
  CHANNELS 6 Xposition Yposition Zposition Yrotation Xrotation Zrotation
  JOINT spine
  {
    OFFSET -6.402521e-31 0.5173342420023708 0
    CHANNELS 3 Yrotation Xrotation Zrotation
    JOINT chest
    {
      OFFSET 0 1.130544299341115 0
      CHANNELS 3 Yrotation Xrotation Zrotation
      JOINT upperChest
      {
        OFFSET 0 1.0863555061129995 0
        CHANNELS 3 Yrotation Xrotation Zrotation
        JOINT neck
        {
          OFFSET 0 1.3773706506454462 0
          CHANNELS 3 Yrotation Xrotation Zrotation
          JOINT head
          {
            OFFSET 0 0.7374408940073979 0
            CHANNELS 3 Yrotation Xrotation Zrotation
            JOINT leftEye
            {
              OFFSET 0.25066580148932727 0.6408406698778757 0.15963719178883284
              CHANNELS 3 Yrotation Xrotation Zrotation
              End Site
              {
                OFFSET 0.25066580148932727 0.6408406698778757 0.15963719178883284
              }
            }
            JOINT rightEye
            {
              OFFSET -0.25066576739704244 0.6408406384191823 0.15963727561643756
              CHANNELS 3 Yrotation Xrotation Zrotation
              End Site
              {
                OFFSET -0.25066576739704244 0.6408406384191823 0.15963727561643756
              }
            }
          }
        }
        JOINT leftShoulder
        {
          OFFSET 0.3761817444281191 1.0539491987447769 0
          CHANNELS 3 Yrotation Xrotation Zrotation
          JOINT leftUpperArm
          {
            OFFSET 0.8702844380000002 0 0
            CHANNELS 3 Yrotation Xrotation Zrotation
            JOINT leftLowerArm
            {
              OFFSET 2.198527310000323 0 0
              CHANNELS 3 Yrotation Xrotation Zrotation
              JOINT leftHand
              {
                OFFSET 2.146852313968281 0 0
                CHANNELS 3 Yrotation Xrotation Zrotation
                JOINT leftIndexProximal
                {
                  OFFSET 0.6585177834681599 0.07380250427007962 0.18382213159631788
                  CHANNELS 3 Yrotation Xrotation Zrotation
                  JOINT leftIndexIntermediate
                  {
                    OFFSET 0.3323021288626682 -0.009606893929485771 -0.012820872253340998
                    CHANNELS 3 Yrotation Xrotation Zrotation
                    JOINT leftIndexDistal
                    {
                      OFFSET 0.2045908926985518 -0.0071133989147997845 -0.006828784783599051
                      CHANNELS 3 Yrotation Xrotation Zrotation
                      End Site
                      {
                        OFFSET 0.2045908926985518 -0.0071133989147997845 -0.006828784783599051
                      }
                    }
                  }
                }
                JOINT leftLittleProximal
                {
                  OFFSET 0.6110054258835662 0.07380246363125398 -0.29175655876064077
                  CHANNELS 3 Yrotation Xrotation Zrotation
                  JOINT leftLittleIntermediate
                  {
                    OFFSET 0.3144281999999998 -2.5124724523095665e-9 1.8658118799974588e-7
                    CHANNELS 3 Yrotation Xrotation Zrotation
                    JOINT leftLittleDistal
                    {
                      OFFSET 0.18116185580251631 0.002815456192251098 0.0034826415518049436
                      CHANNELS 3 Yrotation Xrotation Zrotation
                      End Site
                      {
                        OFFSET 0.18116185580251631 0.002815456192251098 0.0034826415518049436
                      }
                    }
                  }
                }
                JOINT leftMiddleProximal
                {
                  OFFSET 0.6637478005691111 0.07380246480054087 0.02046981859247815
                  CHANNELS 3 Yrotation Xrotation Zrotation
                  JOINT leftMiddleIntermediate
                  {
                    OFFSET 0.3705733999999994 -2.9611069152224445e-9 9.35054791928458e-8
                    CHANNELS 3 Yrotation Xrotation Zrotation
                    JOINT leftMiddleDistal
                    {
                      OFFSET 0.22861063500000056 -1.82673876025774e-9 -1.6740782024515788e-7
                      CHANNELS 3 Yrotation Xrotation Zrotation
                      End Site
                      {
                        OFFSET 0.22861063500000056 -1.82673876025774e-9 -1.6740782024515788e-7
                      }
                    }
                  }
                }
                JOINT leftRingProximal
                {
                  OFFSET 0.6561845547265777 0.07380246406440083 -0.13588087571513918
                  CHANNELS 3 Yrotation Xrotation Zrotation
                  JOINT leftRingIntermediate
                  {
                    OFFSET 0.3437531000000005 -2.746796123886952e-9 1.4935781944558357e-7
                    CHANNELS 3 Yrotation Xrotation Zrotation
                    JOINT leftRingDistal
                    {
                      OFFSET 0.1983118991198174 -0.002467117924596085 -0.004538141969590015
                      CHANNELS 3 Yrotation Xrotation Zrotation
                      End Site
                      {
                        OFFSET 0.1983118991198174 -0.002467117924596085 -0.004538141969590015
                      }
                    }
                  }
                }
                JOINT leftThumbProximal
                {
                  OFFSET 0.09767004258864787 -0.14930060425447422 -0.07008212897521154
                  CHANNELS 3 Yrotation Xrotation Zrotation
                  JOINT leftThumbIntermediate
                  {
                    OFFSET 0.36682123028154767 -0.015768465060082004 0.28693641268151077
                    CHANNELS 3 Yrotation Xrotation Zrotation
                    JOINT leftThumbDistal
                    {
                      OFFSET 0.21091084272403915 -0.016756648201192714 0.1933767059105508
                      CHANNELS 3 Yrotation Xrotation Zrotation
                      End Site
                      {
                        OFFSET 0.21091084272403915 -0.016756648201192714 0.1933767059105508
                      }
                    }
                  }
                }
              }
            }
          }
        }
        JOINT rightShoulder
        {
          OFFSET -0.37618174442811925 1.0539491987447769 0
          CHANNELS 3 Yrotation Xrotation Zrotation
          JOINT rightUpperArm
          {
            OFFSET -0.870284438 0 0
            CHANNELS 3 Yrotation Xrotation Zrotation
            JOINT rightLowerArm
            {
              OFFSET -2.1985273100003235 0 0
              CHANNELS 3 Yrotation Xrotation Zrotation
              JOINT rightHand
              {
                OFFSET -2.1468523139682802 0 0
                CHANNELS 3 Yrotation Xrotation Zrotation
                JOINT rightIndexProximal
                {
                  OFFSET -0.6585177834681599 0.07380250427007962 0.18382213159631788
                  CHANNELS 3 Yrotation Xrotation Zrotation
                  JOINT rightIndexIntermediate
                  {
                    OFFSET -0.3323021288626682 -0.009606893929485771 -0.012820872253340998
                    CHANNELS 3 Yrotation Xrotation Zrotation
                    JOINT rightIndexDistal
                    {
                      OFFSET -0.2045908926985518 -0.0071133989147997845 -0.006828784783599051
                      CHANNELS 3 Yrotation Xrotation Zrotation
                      End Site
                      {
                        OFFSET -0.2045908926985518 -0.0071133989147997845 -0.006828784783599051
                      }
                    }
                  }
                }
                JOINT rightLittleProximal
                {
                  OFFSET -0.6110054258835662 0.07380246363125398 -0.29175655876064077
                  CHANNELS 3 Yrotation Xrotation Zrotation
                  JOINT rightLittleIntermediate
                  {
                    OFFSET -0.3144281999999998 -2.5124724523095665e-9 1.8658118799974588e-7
                    CHANNELS 3 Yrotation Xrotation Zrotation
                    JOINT rightLittleDistal
                    {
                      OFFSET -0.18116185580251631 0.002815456192251098 0.0034826415518049436
                      CHANNELS 3 Yrotation Xrotation Zrotation
                      End Site
                      {
                        OFFSET -0.18116185580251631 0.002815456192251098 0.0034826415518049436
                      }
                    }
                  }
                }
                JOINT rightMiddleProximal
                {
                  OFFSET -0.6637478005691111 0.07380246480054087 0.02046981859247815
                  CHANNELS 3 Yrotation Xrotation Zrotation
                  JOINT rightMiddleIntermediate
                  {
                    OFFSET -0.3705733999999994 -2.9611069152224445e-9 9.35054791928458e-8
                    CHANNELS 3 Yrotation Xrotation Zrotation
                    JOINT rightMiddleDistal
                    {
                      OFFSET -0.22861063500000056 -1.82673876025774e-9 -1.6740782024515788e-7
                      CHANNELS 3 Yrotation Xrotation Zrotation
                      End Site
                      {
                        OFFSET -0.22861063500000056 -1.82673876025774e-9 -1.6740782024515788e-7
                      }
                    }
                  }
                }
                JOINT rightRingProximal
                {
                  OFFSET -0.6561845547265777 0.07380246406440083 -0.13588087571513918
                  CHANNELS 3 Yrotation Xrotation Zrotation
                  JOINT rightRingIntermediate
                  {
                    OFFSET -0.3437531000000005 -2.746796123886952e-9 1.4935781944558357e-7
                    CHANNELS 3 Yrotation Xrotation Zrotation
                    JOINT rightRingDistal
                    {
                      OFFSET -0.1983118991198174 -0.002467117924596085 -0.004538141969590015
                      CHANNELS 3 Yrotation Xrotation Zrotation
                      End Site
                      {
                        OFFSET -0.1983118991198174 -0.002467117924596085 -0.004538141969590015
                      }
                    }
                  }
                }
                JOINT rightThumbProximal
                {
                  OFFSET -0.09767004258864787 -0.14930060425447422 -0.07008212897521154
                  CHANNELS 3 Yrotation Xrotation Zrotation
                  JOINT rightThumbIntermediate
                  {
                    OFFSET -0.36682123028154767 -0.015768465060082004 0.28693641268151077
                    CHANNELS 3 Yrotation Xrotation Zrotation
                    JOINT rightThumbDistal
                    {
                      OFFSET -0.21091084272403915 -0.016756648201192714 0.1933767059105508
                      CHANNELS 3 Yrotation Xrotation Zrotation
                      End Site
                      {
                        OFFSET -0.21091084272403915 -0.016756648201192714 0.1933767059105508
                      }
                    }
                  }
                }
              }
            }
          }
        }
      }
    }
  }
  JOINT leftUpperLeg
  {
    OFFSET 0.7715603 -0.3993844658041501 0
    CHANNELS 3 Yrotation Xrotation Zrotation
    JOINT leftLowerLeg
    {
      OFFSET 0 -3.529830000249343 0
      CHANNELS 3 Yrotation Xrotation Zrotation
      JOINT leftFoot
      {
        OFFSET 0 -4.154939295409685 0.004208579085223096
        CHANNELS 3 Yrotation Xrotation Zrotation
        JOINT leftToes
        {
          OFFSET 0 -0.6353414391261847 1.10414981190622
          CHANNELS 3 Yrotation Xrotation Zrotation
          End Site
          {
            OFFSET 0 -0.6015820691747853 1.10414981190622
          }
        }
      }
    }
  }
  JOINT rightUpperLeg
  {
    OFFSET -0.7715603 -0.3993844658041501 0
    CHANNELS 3 Yrotation Xrotation Zrotation
    JOINT rightLowerLeg
    {
      OFFSET 0 -3.529830000249343 0
      CHANNELS 3 Yrotation Xrotation Zrotation
      JOINT rightFoot
      {
        OFFSET 0 -4.154939295409685 0.004208579085223096
        CHANNELS 3 Yrotation Xrotation Zrotation
        JOINT rightToes
        {
          OFFSET 0 -0.6353414391261847 1.10414981190622
          CHANNELS 3 Yrotation Xrotation Zrotation
          End Site
          {
            OFFSET 0 -0.6015820691747853 1.10414981190622
          }
        }
      }
    }
  }
}
MOTION
Frames: 4
Frame Time: 0.03333333333333333
0.009140675379471346 8.825356743552467 1.3736612102989378 -0.09802093290202833 -1.5209972028806593 -1.2270292362577129 -0.13490688530602504 0.9682944551630079 0.17560900260743786 -4.953066797755093 2.0382815132713086 0.2034383721853016 0 0 0 0.8813533746063431 -2.749804301537127 -1.4697862632606888 -1.531471747499552 5.575645166255871 3.545593460361803 0 0 0 0 0 0 7.381454790960651 -0.35378171452243 -0.5036662321518381 -24.563307644528223 2.2377928725782312 -71.55695997798395 -29.295032821308514 -0.000034103137991204504 0.00001424337431847072 13.895200372538657 8.163991221433738 -11.383870642794278 1.12883624106698 -0.059574694923885875 -21.12028646220027 4.0182855173798835 1.2830500515265617 -35.38848736970925 2.051555887425175 0.31350722061476904 -17.32166550664967 6.72443412041112 3.960498193844811 -46.495726508913414 -1.6106726185873474 0.5438984268622091 -21.57859060533752 0.9122170274916135 0.08869198279428935 -7.659768587176566 2.2258684930244956 0.28356918761394095 -27.270558821103577 2.802671039334602 0.5917169030321073 -23.87919646410018 1.7711842825348447 0.23035240553368944 -14.819428144928628 1.7758538174339538 -0.19311353236498255 -33.46457222331679 2.050400352203363 0.31118820353013216 -17.24624423078926 1.3196501338298638 0.12722222291120983 -11.001639249542315 13.451778014683695 -12.217142987591805 4.2794530738194965 12.607952818224565 8.564629073250563 4.274238765875022 1.8553773625600074 -0.4696056293697589 2.696442616409109 2.4186147284632318 0.9939073642564114 -3.6727350337970086 25.519546386153085 -2.4484717278377772 73.7466307651264 27.096016525576218 0.000004619273553624928 0.0000014464063491598157 -14.800892848459787 -1.9519660253267306 1.3410506808912048 -5.109843185878849 0.8818383302141317 11.033140221559561 -4.320996319228416 1.5111260450856174 38.46785847551743 -0.9852905217319354 0.06837752025960701 8.027516105150571 -7.102831477057598 3.6529683699449564 37.52170699386638 -1.9803870318980168 0.2675433240374081 17.243862631085708 -1.0007385773765518 0.05050161817929496 7.760357974444669 -7.155126942232438 2.2173566578346495 20.295422749024517 -3.3113236974582123 0.8659241127483909 29.153724269749922 -0.8378844042178416 -1.5549636974496763 5.361240025348631 -4.955104236682033 1.7643704920647438 29.419388779683203 -2.6397971759003886 0.5108226880937772 21.984156441507675 -1.3028711109652926 -1.7379017129303274 8.416378267769218 -24.02325131446551 5.614538855624821 -8.697126832056062 2.188362865271797 5.152519259993347 0.18991546115960709 1.8209664248200166 -2.3322723224993465 -2.834706178305863 4.027748231018742 -9.958228147447473 2.2857219347439726 10.089655139960158 22.233894260876003 4.783767782261125 2.7327111263185513 -10.699375586872398 -4.124167865704057 -0.0000015090909559739693 -0.4642082133285481 2.8648838105469675e-7 -13.52968493659708 -10.444613405824532 -3.845869034460643 -4.457156025235684 18.428454731517032 -2.790343225619959 -4.39094333291964 -5.382777473219626 6.844461712447949 -0.000007621178972185459 -0.00002217801654673214 0.0000042688511325959945
0.02534278922460296 8.821629610928621 1.3703873168125682 -0.1129079223522426 -1.5439002953801966 -1.3354672225021667 -0.12036288496621049 1.0057468451912852 0.17679084297600103 -4.914430648341285 2.1776568687840454 0.1717661349702673 0 0 0 0.8596574519754246 -2.719340905363605 -1.418958507305454 -1.5464843065973406 5.5324085789527455 3.590657122680846 0 0 0 0 0 0 7.241716836130306 -0.3449386963060544 -0.4404568348521852 -24.690769548034663 2.1641505077497327 -71.60244944398053 -29.273076370340466 -0.00004740401452069971 0.000006769580927113749 13.881008327231758 8.22750410086848 -11.407547544939318 1.1487532198493136 -0.054809191524224116 -21.227708265831467 3.9994981974291175 1.2697451701953253 -35.1980153318856 2.0407047781361376 0.3101235855054509 -17.227625480324374 6.668228504311083 3.9094143103601526 -46.642413798818666 -1.610664403892809 0.543903122828849 -21.57859662521864 0.9123292322935134 0.08870648362343869 -7.660900920784619 2.2184314979225843 0.27727952190881694 -27.38815686354239 2.7883558932637955 0.5854291687008035 -23.749796344307974 1.76350603723366 0.22831445819545604 -14.753594979208748 1.735044441251929 -0.2242258110414615 -33.551162844546724 2.044106532878369 0.30924042380949196 -17.191651880751788 1.3160900125972248 0.1265406030452606 -10.97162864863447 13.457178525464961 -12.220180364215368 4.28787966300045 12.601824726723367 8.552570130412002 4.270550555621617 1.8543100929388143 -0.4694506642496562 2.694796531724542 2.6638187310529 1.0401920704354313 -3.521207120626653 25.597993623536194 -2.443546302336164 73.6305952776357 27.15592836299268 -9.99682228374669e-7 -0.00000849846490708641 -14.75720923214134 -1.9845547965390784 1.278109627642912 -5.063450087771971 0.8758940856813048 11.086234508076402 -4.319317557106892 1.509807040091252 38.45040180518575 -0.9790804874623361 0.06749214969597853 7.9759315299183635 -7.024538978995463 3.6073493562857304 37.728275488283906 -1.9774607001580016 0.26670445563271467 17.21894847852315 -0.9880305605523466 0.048963174185067224 7.655283845789374 -7.103748093376189 2.2142609077366293 20.476712551631064 -3.3031953531023697 0.8614304583237324 29.077757616516426 -0.8266067011191736 -1.5739867823787899 5.274549479441632 -4.8832755597495865 1.72742389443277 29.53998307432031 -2.630995785992068 0.5072766127413654 21.90631124216396 -1.2958051376350324 -1.7488511989549875 8.360588998517695 -24.03295787060402 5.564199651240033 -8.813260314930531 2.222847262286857 5.094702918694026 0.22551537874074262 1.8209797378271728 -2.3307891570671915 -2.8304930711928775 4.068521629791985 -10.12866198844146 2.306468950841643 10.049378530796226 22.584465785810554 4.774141756701159 2.756015682349639 -10.88638512127466 -4.010866675426325 0.000009268872552663576 -0.4457498721435883 0.0000011458872793740009 -13.633426714928449 -10.495094851615828 -3.823305038838281 -4.4901500117202096 18.49576412156649 -2.864072029585114 -4.260722870592995 -5.348411914119305 6.960567244442071 0.0000015721632421543874 -0.000022178014918288146 0.000004268864160147969
0.04101985218850049 8.818727840076791 1.3692372316451167 -0.1168712460939596 -1.570453817653922 -1.4343293491660811 -0.10558824177726123 1.037927490349504 0.175092751843407 -4.8666207168544355 2.2998192751933093 0.13603920718982368 0 0 0 0.8410269310553291 -2.6657635928283874 -1.3741944410213291 -1.559332883410794 5.534622056735742 3.633803873612699 0 0 0 0 0 0 7.179842629234396 -0.3411626812706031 -0.4001543479774618 -24.730649492554118 2.1252415458149976 -71.61057259447117 -29.243648289979603 -0.00003179683789614133 -0.000007699354054701087 13.873579257739399 8.30643001244583 -11.407559644470549 1.1714273206413777 -0.048884483573632696 -21.333229255348584 3.982211843501539 1.2575551203791606 -35.0232870404166 2.030673579616211 0.30703165276427613 -17.140540568057013 6.615432360656271 3.8638969763881064 -46.83291037589271 -1.6106496814530809 0.5438902089205983 -21.57858584150654 0.9124318856797268 0.08872463300528449 -7.661670194513716 2.2146563403741344 0.27258635418427424 -27.51811285872064 2.7752224669200065 0.5796482353521473 -23.63107360749226 1.756377145325195 0.22644347855780275 -14.69260443971698 1.6981153256214492 -0.2540124457085565 -33.656895171634545 2.038390786998501 0.30745910602222376 -17.142094418526447 1.3127742987871072 0.1258963225441438 -10.943523462615167 13.463475802571741 -12.222464752986689 4.295473016911096 12.59505352080647 8.53894805065531 4.266910796169212 1.8498402847665394 -0.4709297168119868 2.6928458158146045 2.8100985180711393 1.066959518340895 -3.445845775728219 25.669025810459186 -2.4535386006287636 73.61942352260805 27.188224458508188 -0.000002552081147516319 0.0000120808308167892 -14.70839719747883 -2.145288837466212 1.2604198738177779 -5.065268903356822 0.8839286162584781 11.20106297884635 -4.31402202898252 1.5056235949811596 38.395241948401996 -0.9681506703212308 0.06596432738993642 7.885562186122695 -6.96775833331814 3.5634009283443855 37.73968801645118 -1.9878180072707112 0.26966388095321325 17.307158849386845 -0.982245122087146 0.04827740693722919 7.607561112910324 -7.077252082900791 2.2051556847564213 20.489956340544772 -3.306300496031867 0.8631628011535643 29.10681018018924 -0.8139638086551113 -1.566190289213519 5.195260702696615 -4.8337346258788845 1.6980625208986402 29.50787961168884 -2.640897163762728 0.5112702967327915 21.99389326732325 -1.2884425774623947 -1.7337499342113507 8.32738377971584 -24.045713509577325 5.536733896392205 -8.892507626369996 2.2494633131327038 5.0500717117784095 0.25337736031113206 1.822301501945542 -2.330512946249802 -2.828109574856314 4.106729710664697 -10.245501253534838 2.3261292378934244 9.984127836321326 22.87078026043244 4.734385116109126 2.7875862703547205 -11.055352906548459 -3.891332087534904 0.000007635690141934016 -0.4395211140333362 -1.3291869594447822e-7 -13.726453798425863 -10.499143760388243 -3.8117104034874343 -4.543507796830887 18.51145664216326 -2.9412428647150426 -4.131622976278121 -5.306009659028517 7.0800701575713125 -0.000006287724348428288 -0.000015743073532984882 -0.0000017075613378326607
0.0549597597934983 8.818282214078035 1.3739146384113146 -0.09262664905634352 -1.6150778515901887 -1.5014785234196713 -0.09144875742425958 1.0573471501905676 0.1664736516511206 -4.7979572760639435 2.380971138424173 0.0869818577286286 0 0 0 0.8344237695904483 -2.549124480979203 -1.3568170384749885 -1.5659418848260924 5.642960563711963 3.672203695851977 0 0 0 0 0 0 7.1623060864393855 -0.3388294368976981 -0.39528294874846365 -24.71830544189882 2.118417136281476 -71.57597043229916 -29.20839139486422 -0.00003158749816345061 0.000021643041753309905 13.880368225841538 8.387339444228697 -11.392706250992385 1.1846446802856148 -0.04503382973287963 -21.381817488055024 3.974319629824607 1.2520274247415168 -34.943675484551505 2.0260851518720795 0.30561575565801324 -17.10087030259511 6.578172478903183 3.83836656301667 -47.09285512460027 -1.6106607766250698 0.5438984802254665 -21.578595037275047 0.9124084098538745 0.08871971713081822 -7.661547764270915 2.2117508446426477 0.2686275750759324 -27.630819888687423 2.7692243261203915 0.5770432926109033 -23.576946562576154 1.7531442851272456 0.22559682199782635 -14.664837605057555 1.672647864973274 -0.27752653219193324 -33.78264950319937 2.035920987410617 0.30669931660599653 -17.120736002881138 1.3111458219197198 0.1255875625655618 -10.929971151656856 13.47030020301633 -12.223227385064618 4.300797648414675 12.58694321406111 8.521737682347537 4.2639493135989515 1.8361781414906695 -0.476617110951543 2.6895773715916156 2.896224697455546 1.0829535136079407 -3.41340677762739 25.74735378031987 -2.462873173539744 73.67392856814325 27.212500475178523 -0.00001612768432150693 9.722557710232226e-7 -14.65975586184422 -2.3774956314727964 1.2715800219173692 -5.198478492223841 0.9305358269881457 11.477580803342216 -4.298506558368415 1.4933973181411255 38.23362318761555 -0.9450836361489829 0.06281740245356099 7.6944229879774655 -6.958791520726473 3.510347553610029 37.12078440101397 -2.0399299856927824 0.28485311889139836 17.752269835880515 -0.9982492170091444 0.05018653889661118 7.73985834214943 -7.1087409610440195 2.1667439896979594 19.9407472314682 -3.3450671161487673 0.8845944789180041 29.46967658264495 -0.799620763209603 -1.4739249642326926 5.154997655316322 -4.835230589007821 1.6821329259735973 28.985854153647765 -2.7089380112370525 0.5392572127055567 22.596910554915528 -1.2804463583988173 -1.6354705417901267 8.36865022686459 -24.02460382324173 5.529928773145635 -8.820006276976985 2.2103510686204877 5.1223782134960745 0.22812203472212905 1.796492506040078 -2.319964852369666 -2.833016928945175 4.109139691869931 -10.203191701420376 2.343019434446042 9.873760416316735 22.977181423372045 4.615284686584961 2.8464149181393377 -11.17303812915481 -3.759694257896136 0.000005984932553906577 -0.45443299137053506 0.0000015701551179123804 -13.778169033180381 -10.36545001098045 -3.836564401978086 -4.64574359463559 18.38220853123887 -3.0232108897888303 -4.018911930977663 -5.241013380504874 7.207479631163784 0.000015243312212552836 -0.00004377259743514275 1.0820004757525257e-11
